<svg xmlns="http://www.w3.org/2000/svg" xmlns:xlink="http://www.w3.org/1999/xlink" version="1.1" id="Layer_1" x="0px" y="0px" width="100px" height="100px" viewBox="0 0 100 100" enable-background="new 0 0 100 100" xml:space="preserve">
<g>
	<path fill-rule="evenodd" clip-rule="evenodd" d="M46.979,0c1.997,0,3.994,0,5.991,0c17.95,1.634,29.407,9.76,37.78,20.971   c-5.415,5.475-11.542,11.71-17.475,17.642c-2.573,2.574-6.453,4.909-5.659,9.487c-6.907-2.809-8.889,3.034-11.484,7.323   c-2.367,3.911-4.482,7.708-10.152,7.822c5.611,3.537,14.472,2.642,20.139-0.499c3.614-2.004,8.147-5.45,5.492-10.485   c4.424,1.882,6.889-2.062,9.321-4.494c5.128-5.129,11.082-11.108,15.811-15.479c3.119,7.619,3.978,17.567,2.663,25.797   c-1.312,8.211-4.957,15.459-8.821,20.972c-8.242,11.758-21.256,19.874-38.945,20.971c-1.055,0-2.108,0-3.163,0   c-9.167-0.486-17.199-2.996-22.801-6.491c6.957-0.806,14.104,1.061,17.309-3.162c2.813-3.707,1.069-9.833,2.497-14.479   c1.439-4.688,5.184-6.773,11.151-7.324c-5.708-0.17-10.63-2.421-14.813-0.166c-3.129,1.688-3.864,5.728-5.991,8.321   c-1.487,1.814-4.557,4.083-7.823,3.995c-5.274-0.142-8.033-5.106-12.15-7.49c-2.978-1.724-6.648-2.018-11.15-1.83   c-3.263-7.421-5.407-16.249-4.494-25.964c0.846-9.006,4.184-16.875,7.989-22.801C16.168,10.228,28.923,1.75,46.979,0z"/>
</g>
</svg>