<?xml version="1.0"?><svg width="744.094" height="1052.36" xmlns="http://www.w3.org/2000/svg">
 <title>ink splash with green drops</title>
 <metadata id="metadata7">image/svg+xmlink splash with dropsSergio Luiz Araujo Silvadropsplashink</metadata>
 <g>
  <title>Layer 1</title>
  <g id="layer1">
   <path d="m481.213013,495.730011c-40.845001,31.813019 109.136963,76.816986 59.263,104.493011c-41.150024,22.833984 -47.552002,-100.77301 -93.361023,-71.937012c-22.634003,14.247009 30.171021,49.562988 4.912018,59.805969c-27.735016,11.246033 -22.182007,-50.781982 -52.277008,-45.146973c-49.803986,9.325989 46.222992,132.271973 -11.333008,138.294983c-55.710999,5.830994 18.304993,-133.625 -26.902985,-134.585999c-26.824005,-0.570007 -12.09201,58.298035 -39.687012,53.460999c-30.29599,-5.312988 18.722015,-52.22998 -8.194,-65.36499c-82.942993,-40.471008 -61.317993,127.676025 -116.931,101.202026c-66.838989,-31.817017 105.309998,-76.923035 72.153992,-136.341034c-22.583984,-40.473999 -45.67099,64.311005 -79.744995,29.881012c-28.378998,-28.674011 90.787994,-26.980011 42.730011,-68.246002c-20.044998,-17.213989 -49.940002,43.072998 -59.391998,19.200012c-10.378006,-26.210022 57.882996,-19.951019 58.320999,-48.06601c1.035995,-66.765015 -150.589508,26.423981 -154.090103,-17.153015c-4.191902,-52.191986 146.341095,20.802002 154.336105,-35.858002c3.482986,-24.677002 -147.041405,-11.570984 -139.317009,-35.159973c8.481003,-25.901001 129.409004,29.783997 139.663002,3.72699c9.337006,-23.734009 -57.934998,-34.093018 -43.472992,-55.464996c15.876999,-23.464996 46.48999,29.054993 66.338989,8.087006c18.075989,-19.098022 -38.688004,-37.409027 -17.182999,-53.207016c23.610001,-17.343994 42.205002,51.309006 66.899002,35.784012c52.084991,-32.741013 -86.654999,-115.993011 -37.450989,-134.838013c54.304993,-20.798996 18.177979,120.696014 83.623993,110.902008c26.755005,-4.003998 -16.453003,-56.728012 11.014984,-58.638c30.15802,-2.096008 -8.001984,54.947998 22.735016,57.700989c27.992004,2.509003 14.04599,-55.809998 40.513,-49.638992c29.05899,6.776993 -19.494019,62.412003 8.55899,70.820999c25.550018,7.658997 38.652008,-63.574005 63.226013,-51.334c26.978973,13.438995 -40.753021,58.643997 -17.28302,76.139999c21.377014,15.93399 70.703033,-94.343002 104.198029,-58.830994c34.786987,36.882996 -107.530029,51.677979 -69.539001,78.152008c21.755005,15.16098 49.623962,-22.086029 59.391968,0.899994c10.723022,25.238007 -60.328979,19.010986 -53.833984,45.292999c13.880981,56.178986 104.210022,-41.238007 114.971985,0.554993c17.480042,67.872986 -70.151001,4.593994 -96.430969,44.406006c-24.338013,36.871979 121.714966,30.436981 114.963013,54.889984c-12.17804,44.117004 -115.292053,-71.070984 -133.82605,-7.515991c-40.360992,32.024994 90.68103,56.71698 71.119995,83.901978c-32.143982,14.843018 -72.597961,-70.922974 -108.68396,-50.270966l0,0z" fill="#007fff" id="path2854"/>
   <path d="m76.596802,337.619995a13.0019,11.8331 0 1 1 -26.003803,0a13.0019,11.8331 0 1 1 26.003803,0z" fill="#007fff" id="path2859"/>
   <path d="m608.372986,318.686005a13.0019,11.8331 0 1 1 -26.003967,0a13.0019,11.8331 0 1 1 26.003967,0z" fill="#007fff" id="path2857"/>
   <path d="m439.359009,199.248001c0,0 10.112976,-98.723999 40.75,-87.596001c29.912994,10.864998 -40.75,87.596001 -40.75,87.596001z" fill="#007fff" id="path2861"/>
   <path d="m603.06897,418.640991c0,0 107.39502,-16.661987 103.514038,13.153015c-3.788025,29.109985 -103.514038,-13.153015 -103.514038,-13.153015z" fill="#007fff" id="path2864"/>
   <path d="m150.279999,503.837006c0,0 -83.8545,63.300018 -96.872299,35.714996c-12.711899,-26.934998 96.872299,-35.714996 96.872299,-35.714996z" fill="#007fff" id="path2866"/>
  </g>
 </g>
</svg>